<svg width="59" height="9" viewBox="0 0 59 9" fill="none" xmlns="http://www.w3.org/2000/svg">
<g clip-path="url(#clip0)">
<path d="M6.74966 0.00170236L5.58257 0C4.27139 0 3.42404 0.790323 3.42404 2.01356V2.94194H2.25059C2.14919 2.94194 2.06708 3.01667 2.06708 3.10886V4.45398C2.06708 4.54616 2.14928 4.62081 2.25059 4.62081H3.42404V8.01499C3.42404 8.10717 3.50616 8.18182 3.60756 8.18182H5.13858C5.23998 8.18182 5.32209 8.10708 5.32209 8.01499V4.62081H6.69414C6.79554 4.62081 6.87765 4.54616 6.87765 4.45398L6.87821 3.10886C6.87821 3.0646 6.85883 3.02221 6.82447 2.99088C6.79011 2.95956 6.74329 2.94194 6.6946 2.94194H5.32209V2.15494C5.32209 1.77667 5.42125 1.58465 5.96327 1.58465L6.74947 1.58439C6.85078 1.58439 6.93289 1.50966 6.93289 1.41756V0.168534C6.93289 0.0765213 6.85087 0.0018726 6.74966 0.00170236Z" fill="black"/>
</g>
<path d="M27.3777 0.882632C27.0397 1.03241 26.677 1.13399 26.2959 1.17934C26.685 0.946335 26.9829 0.576757 27.124 0.137729C26.759 0.353506 26.3562 0.510188 25.9269 0.595124C25.5831 0.228413 25.0942 0 24.5519 0C23.5114 0 22.6678 0.843616 22.6678 1.8835C22.6678 2.03098 22.6844 2.17503 22.7166 2.31277C21.151 2.23414 19.7628 1.48407 18.8337 0.344322C18.6712 0.622091 18.5789 0.945749 18.5789 1.29124C18.5789 1.94491 18.9117 2.52166 19.4167 2.8591C19.108 2.84877 18.8176 2.76384 18.5634 2.62266V2.64619C18.5634 3.55867 19.213 4.32021 20.0744 4.49354C19.9166 4.536 19.7502 4.55953 19.578 4.55953C19.4563 4.55953 19.3387 4.54748 19.2233 4.52452C19.4632 5.27345 20.1588 5.81806 20.9829 5.83299C20.3384 6.33802 19.5258 6.63816 18.6431 6.63816C18.4911 6.63816 18.3413 6.62898 18.1938 6.61234C19.0276 7.14778 20.0176 7.45998 21.0816 7.45998C24.5473 7.45998 26.4417 4.58938 26.4417 2.09986L26.4354 1.85596C26.8055 1.59196 27.1258 1.26025 27.3777 0.882632Z" fill="#010002"/>
<g clip-path="url(#clip1)">
<path d="M39.733 0H36.358C34.8049 0 33.5455 1.25944 33.5455 2.8125V6.1875C33.5455 7.74056 34.8049 9 36.358 9H39.733C41.286 9 42.5455 7.74056 42.5455 6.1875V2.8125C42.5455 1.25944 41.286 0 39.733 0ZM41.7017 6.1875C41.7017 7.27313 40.8186 8.15625 39.733 8.15625H36.358C35.2723 8.15625 34.3892 7.27313 34.3892 6.1875V2.8125C34.3892 1.72688 35.2723 0.84375 36.358 0.84375H39.733C40.8186 0.84375 41.7017 1.72688 41.7017 2.8125V6.1875Z" fill="black"/>
<path d="M38.0455 2.25C36.8029 2.25 35.7955 3.25744 35.7955 4.5C35.7955 5.74256 36.8029 6.75 38.0455 6.75C39.288 6.75 40.2955 5.74256 40.2955 4.5C40.2955 3.25744 39.288 2.25 38.0455 2.25ZM38.0455 5.90625C37.2703 5.90625 36.6392 5.27513 36.6392 4.5C36.6392 3.72431 37.2703 3.09375 38.0455 3.09375C38.8206 3.09375 39.4517 3.72431 39.4517 4.5C39.4517 5.27513 38.8206 5.90625 38.0455 5.90625Z" fill="black"/>
<path d="M40.4642 2.38106C40.6298 2.38106 40.7641 2.24683 40.7641 2.08125C40.7641 1.91567 40.6298 1.78144 40.4642 1.78144C40.2987 1.78144 40.1644 1.91567 40.1644 2.08125C40.1644 2.24683 40.2987 2.38106 40.4642 2.38106Z" fill="black"/>
</g>
<g clip-path="url(#clip2)">
<path d="M58.9091 4.97515V8.00002H56.9801V5.17774C56.9801 4.46876 56.7011 3.98491 56.0028 3.98491C55.4698 3.98491 55.1526 4.31099 55.0131 4.62642C54.9622 4.73918 54.9491 4.89613 54.9491 5.05398V8.00002H53.0194C53.0194 8.00002 53.0454 3.22 53.0194 2.72476H54.9489V3.4725C54.945 3.4781 54.9399 3.48413 54.9362 3.48955H54.9489V3.4725C55.2052 3.11357 55.6631 2.60083 56.6878 2.60083C57.9573 2.60081 58.9091 3.35479 58.9091 4.97515ZM51.001 0.181815C50.3408 0.181815 49.9091 0.575444 49.9091 1.09308C49.9091 1.59943 50.3283 2.00501 50.9754 2.00501H50.9882C51.6612 2.00501 52.0796 1.59951 52.0796 1.09308C52.067 0.575444 51.6612 0.181815 51.001 0.181815ZM50.0237 8.00002H51.9526V2.72476H50.0237V8.00002Z" fill="black"/>
</g>
<defs>
<clipPath id="clip0">
<rect width="9" height="8.18182" fill="white"/>
</clipPath>
<clipPath id="clip1">
<rect x="33.5455" width="9" height="9" fill="white"/>
</clipPath>
<clipPath id="clip2">
<rect x="49.9091" width="9" height="8.18182" fill="white"/>
</clipPath>
</defs>
</svg>
